<svg width="28" height="28" viewBox="0 0 28 28" fill="none" xmlns="http://www.w3.org/2000/svg">
<path d="M24.8749 19.4154V22.7904C24.8761 23.1037 24.812 23.4138 24.6864 23.7009C24.5609 23.988 24.3768 24.2457 24.146 24.4575C23.9151 24.6693 23.6425 24.8306 23.3457 24.9309C23.0489 25.0313 22.7344 25.0686 22.4224 25.0404C18.9606 24.6642 15.6352 23.4813 12.7136 21.5866C9.99542 19.8594 7.69087 17.5548 5.96361 14.8366C4.06234 11.9017 2.87914 8.56026 2.50986 5.08289C2.48175 4.77179 2.51872 4.45824 2.61843 4.16222C2.71813 3.86619 2.87838 3.59416 3.08898 3.36346C3.29957 3.13276 3.55589 2.94844 3.84163 2.82223C4.12736 2.69602 4.43625 2.63068 4.74861 2.63039H8.12361C8.66958 2.62502 9.19888 2.81835 9.61285 3.17436C10.0268 3.53037 10.2972 4.02477 10.3736 4.56539C10.5161 5.64546 10.7802 6.70596 11.1611 7.72664C11.3125 8.1293 11.3452 8.56692 11.2555 8.98763C11.1658 9.40834 10.9573 9.79451 10.6549 10.1004L9.22611 11.5291C10.8276 14.3456 13.1596 16.6776 15.9761 18.2791L17.4049 16.8504C17.7107 16.5479 18.0969 16.3395 18.5176 16.2497C18.9383 16.16 19.3759 16.1928 19.7786 16.3441C20.7993 16.725 21.8598 16.9892 22.9399 17.1316C23.4864 17.2087 23.9854 17.484 24.3422 17.9051C24.699 18.3261 24.8886 18.8637 24.8749 19.4154Z" stroke="#307199" stroke-width="2" stroke-linecap="round" stroke-linejoin="round"/>
</svg>
